<?xml version="1.0" encoding="UTF-8" standalone="no"?>
<!DOCTYPE svg PUBLIC "-//W3C//DTD SVG 1.1//EN"
 "http://www.w3.org/Graphics/SVG/1.1/DTD/svg11.dtd">
<!-- Generated by graphviz version 2.40.1 (20161225.0304)
 -->
<!-- Title: dependencies Pages: 1 -->
<svg width="504pt" height="349pt"
 viewBox="0.00 0.00 504.00 349.00" xmlns="http://www.w3.org/2000/svg" xmlns:xlink="http://www.w3.org/1999/xlink">
<g id="graph0" class="graph" transform="scale(1 1) rotate(0) translate(4 345)">
<title>dependencies</title>
<polygon fill="#ffffff" stroke="transparent" points="-4,4 -4,-345 500,-345 500,4 -4,4"/>
<text text-anchor="start" x="227.0091" y="-42.4" font-family="sans-serif" font-weight="bold" font-size="14.00" fill="#000000">Legend</text>
<polygon fill="#ffffb3" stroke="transparent" points="14,-10 14,-30 34,-30 34,-10 14,-10"/>
<text text-anchor="start" x="37.629" y="-15.4" font-family="sans-serif" font-size="14.00" fill="#000000"> &#160;Declarations</text>
<polygon fill="#8dd3c7" stroke="transparent" points="127,-10 127,-30 147,-30 147,-10 127,-10"/>
<text text-anchor="start" x="150.7251" y="-15.4" font-family="sans-serif" font-size="14.00" fill="#000000"> &#160;Module</text>
<polygon fill="#80b1d3" stroke="transparent" points="213,-10 213,-30 233,-30 233,-10 213,-10"/>
<text text-anchor="start" x="236.7812" y="-15.4" font-family="sans-serif" font-size="14.00" fill="#000000"> &#160;Bootstrap</text>
<polygon fill="#fdb462" stroke="transparent" points="310,-10 310,-30 330,-30 330,-10 310,-10"/>
<text text-anchor="start" x="333.6732" y="-15.4" font-family="sans-serif" font-size="14.00" fill="#000000"> &#160;Providers</text>
<polygon fill="#fb8072" stroke="transparent" points="406,-10 406,-30 426,-30 426,-10 406,-10"/>
<text text-anchor="start" x="429.7258" y="-15.4" font-family="sans-serif" font-size="14.00" fill="#000000"> &#160;Exports</text>
<g id="clust1" class="cluster">
<title>cluster_RestAdminModule</title>
<polygon fill="none" stroke="#000000" stroke-dasharray="1,5" points="16.5,-70 16.5,-333 479.5,-333 479.5,-70 16.5,-70"/>
</g>
<g id="clust2" class="cluster">
<title>cluster_RestAdminModule_declarations</title>
<polygon fill="none" stroke="#000000" points="26.5,-143 26.5,-195 463.5,-195 463.5,-143 26.5,-143"/>
</g>
<g id="clust3" class="cluster">
<title>cluster_RestAdminModule_RestAdminComponent_providers</title>
<polygon fill="none" stroke="#000000" points="271.5,-78 271.5,-130 471.5,-130 471.5,-78 271.5,-78"/>
</g>
<g id="clust7" class="cluster">
<title>cluster_RestAdminModule_exports</title>
<polygon fill="none" stroke="#000000" points="24.5,-273 24.5,-325 471.5,-325 471.5,-273 24.5,-273"/>
</g>
<!-- RestAdminComponent -->
<g id="node1" class="node">
<title>RestAdminComponent</title>
<polygon fill="#ffffb3" stroke="#000000" points="455.1066,-187 309.8934,-187 309.8934,-151 455.1066,-151 455.1066,-187"/>
<text text-anchor="middle" x="382.5" y="-164.8" font-family="Times,serif" font-size="14.00" fill="#000000">RestAdminComponent</text>
</g>
<!-- RestAdminModule -->
<g id="node4" class="node">
<title>RestAdminModule</title>
<polygon fill="#8dd3c7" stroke="#000000" points="268.3244,-252 265.3244,-256 244.3244,-256 241.3244,-252 144.6756,-252 144.6756,-216 268.3244,-216 268.3244,-252"/>
<text text-anchor="middle" x="206.5" y="-229.8" font-family="Times,serif" font-size="14.00" fill="#000000">RestAdminModule</text>
</g>
<!-- RestAdminComponent&#45;&gt;RestAdminModule -->
<g id="edge1" class="edge">
<title>RestAdminComponent&#45;&gt;RestAdminModule</title>
<path fill="none" stroke="#000000" d="M408.4344,-187.0225C408.4344,-204.3734 408.4344,-228 408.4344,-228 408.4344,-228 278.1842,-228 278.1842,-228"/>
<polygon fill="#000000" stroke="#000000" points="278.1843,-224.5001 268.1842,-228 278.1842,-231.5001 278.1843,-224.5001"/>
</g>
<!-- RestAdminFieldComponent -->
<g id="node2" class="node">
<title>RestAdminFieldComponent</title>
<polygon fill="#ffffb3" stroke="#000000" points="292.385,-187 118.615,-187 118.615,-151 292.385,-151 292.385,-187"/>
<text text-anchor="middle" x="205.5" y="-164.8" font-family="Times,serif" font-size="14.00" fill="#000000">RestAdminFieldComponent</text>
</g>
<!-- RestAdminFieldComponent&#45;&gt;RestAdminModule -->
<g id="edge3" class="edge">
<title>RestAdminFieldComponent&#45;&gt;RestAdminModule</title>
<path fill="none" stroke="#000000" d="M206.5,-187.1061C206.5,-187.1061 206.5,-205.991 206.5,-205.991"/>
<polygon fill="#000000" stroke="#000000" points="203.0001,-205.9909 206.5,-215.991 210.0001,-205.991 203.0001,-205.9909"/>
</g>
<!-- SafePipe -->
<g id="node3" class="node">
<title>SafePipe</title>
<polygon fill="#ffffb3" stroke="#000000" points="100.2606,-187 34.7394,-187 34.7394,-151 100.2606,-151 100.2606,-187"/>
<text text-anchor="middle" x="67.5" y="-164.8" font-family="Times,serif" font-size="14.00" fill="#000000">SafePipe</text>
</g>
<!-- SafePipe&#45;&gt;RestAdminModule -->
<g id="edge4" class="edge">
<title>SafePipe&#45;&gt;RestAdminModule</title>
<path fill="none" stroke="#000000" d="M78.46,-187.0225C78.46,-204.3734 78.46,-228 78.46,-228 78.46,-228 134.7303,-228 134.7303,-228"/>
<polygon fill="#000000" stroke="#000000" points="134.7303,-231.5001 144.7303,-228 134.7303,-224.5001 134.7303,-231.5001"/>
</g>
<!-- RestAdminComponent  -->
<g id="node6" class="node">
<title>RestAdminComponent </title>
<polygon fill="#fb8072" stroke="#000000" points="463.6071,-317 315.3929,-317 315.3929,-281 463.6071,-281 463.6071,-317"/>
<text text-anchor="middle" x="389.5" y="-294.8" font-family="Times,serif" font-size="14.00" fill="#000000">RestAdminComponent </text>
</g>
<!-- RestAdminModule&#45;&gt;RestAdminComponent  -->
<g id="edge5" class="edge">
<title>RestAdminModule&#45;&gt;RestAdminComponent </title>
<path fill="none" stroke="#000000" stroke-dasharray="5,2" d="M268.3311,-240C311.6436,-240 361.8156,-240 361.8156,-240 361.8156,-240 361.8156,-270.9775 361.8156,-270.9775"/>
<polygon fill="#000000" stroke="#000000" points="358.3157,-270.9774 361.8156,-280.9775 365.3157,-270.9775 358.3157,-270.9774"/>
</g>
<!-- RestAdminFieldComponent  -->
<g id="node7" class="node">
<title>RestAdminFieldComponent </title>
<polygon fill="#fb8072" stroke="#000000" points="297.3854,-317 119.6146,-317 119.6146,-281 297.3854,-281 297.3854,-317"/>
<text text-anchor="middle" x="208.5" y="-294.8" font-family="Times,serif" font-size="14.00" fill="#000000">RestAdminFieldComponent </text>
</g>
<!-- RestAdminModule&#45;&gt;RestAdminFieldComponent  -->
<g id="edge6" class="edge">
<title>RestAdminModule&#45;&gt;RestAdminFieldComponent </title>
<path fill="none" stroke="#000000" stroke-dasharray="5,2" d="M206.5,-252.1061C206.5,-252.1061 206.5,-270.991 206.5,-270.991"/>
<polygon fill="#000000" stroke="#000000" points="203.0001,-270.9909 206.5,-280.991 210.0001,-270.991 203.0001,-270.9909"/>
</g>
<!-- SafePipe  -->
<g id="node8" class="node">
<title>SafePipe </title>
<polygon fill="#fb8072" stroke="#000000" points="102.2607,-317 32.7393,-317 32.7393,-281 102.2607,-281 102.2607,-317"/>
<text text-anchor="middle" x="67.5" y="-294.8" font-family="Times,serif" font-size="14.00" fill="#000000">SafePipe </text>
</g>
<!-- RestAdminModule&#45;&gt;SafePipe  -->
<g id="edge7" class="edge">
<title>RestAdminModule&#45;&gt;SafePipe </title>
<path fill="none" stroke="#000000" stroke-dasharray="5,2" d="M144.6397,-240C103.3315,-240 56.54,-240 56.54,-240 56.54,-240 56.54,-270.9775 56.54,-270.9775"/>
<polygon fill="#000000" stroke="#000000" points="53.0399,-270.9775 56.54,-280.9775 60.0399,-270.9774 53.0399,-270.9775"/>
</g>
<!-- ConfirmationService -->
<g id="node5" class="node">
<title>ConfirmationService</title>
<ellipse fill="#fdb462" stroke="#000000" cx="371.5" cy="-104" rx="92.0509" ry="18"/>
<text text-anchor="middle" x="371.5" y="-99.8" font-family="Times,serif" font-size="14.00" fill="#000000">ConfirmationService</text>
</g>
<!-- ConfirmationService&#45;&gt;RestAdminComponent -->
<g id="edge2" class="edge">
<title>ConfirmationService&#45;&gt;RestAdminComponent</title>
<path fill="none" stroke="#000000" d="M382.5,-122.1061C382.5,-122.1061 382.5,-140.991 382.5,-140.991"/>
<polygon fill="#000000" stroke="#000000" points="379.0001,-140.9909 382.5,-150.991 386.0001,-140.991 379.0001,-140.9909"/>
</g>
</g>
</svg>
