<?xml version="1.0" encoding="UTF-8" standalone="no"?>
<!DOCTYPE svg PUBLIC "-//W3C//DTD SVG 1.1//EN"
 "http://www.w3.org/Graphics/SVG/1.1/DTD/svg11.dtd">
<!-- Generated by graphviz version 2.40.1 (20161225.0304)
 -->
<!-- Title: dependencies Pages: 1 -->
<svg width="635pt" height="352pt"
 viewBox="0.00 0.00 635.00 352.00" xmlns="http://www.w3.org/2000/svg" xmlns:xlink="http://www.w3.org/1999/xlink">
<g id="graph0" class="graph" transform="scale(1 1) rotate(0) translate(4 348)">
<title>dependencies</title>
<polygon fill="#ffffff" stroke="transparent" points="-4,4 -4,-348 631,-348 631,4 -4,4"/>
<text text-anchor="start" x="292.5091" y="-42.4" font-family="sans-serif" font-weight="bold" font-size="14.00" fill="#000000">Legend</text>
<polygon fill="#ffffb3" stroke="transparent" points="79.5,-10 79.5,-30 99.5,-30 99.5,-10 79.5,-10"/>
<text text-anchor="start" x="103.129" y="-15.4" font-family="sans-serif" font-size="14.00" fill="#000000"> &#160;Declarations</text>
<polygon fill="#8dd3c7" stroke="transparent" points="192.5,-10 192.5,-30 212.5,-30 212.5,-10 192.5,-10"/>
<text text-anchor="start" x="216.2251" y="-15.4" font-family="sans-serif" font-size="14.00" fill="#000000"> &#160;Module</text>
<polygon fill="#80b1d3" stroke="transparent" points="278.5,-10 278.5,-30 298.5,-30 298.5,-10 278.5,-10"/>
<text text-anchor="start" x="302.2812" y="-15.4" font-family="sans-serif" font-size="14.00" fill="#000000"> &#160;Bootstrap</text>
<polygon fill="#fdb462" stroke="transparent" points="375.5,-10 375.5,-30 395.5,-30 395.5,-10 375.5,-10"/>
<text text-anchor="start" x="399.1732" y="-15.4" font-family="sans-serif" font-size="14.00" fill="#000000"> &#160;Providers</text>
<polygon fill="#fb8072" stroke="transparent" points="471.5,-10 471.5,-30 491.5,-30 491.5,-10 471.5,-10"/>
<text text-anchor="start" x="495.2258" y="-15.4" font-family="sans-serif" font-size="14.00" fill="#000000"> &#160;Exports</text>
<g id="clust1" class="cluster">
<title>cluster_AppModule</title>
<polygon fill="none" stroke="#000000" stroke-dasharray="1,5" points="8,-70 8,-268 148,-268 148,-70 8,-70"/>
</g>
<g id="clust2" class="cluster">
<title>cluster_AppModule_declarations</title>
<polygon fill="none" stroke="#000000" points="17,-78 17,-130 139,-130 139,-78 17,-78"/>
</g>
<g id="clust6" class="cluster">
<title>cluster_AppModule_bootstrap</title>
<polygon fill="none" stroke="#000000" points="16,-208 16,-260 140,-260 140,-208 16,-208"/>
</g>
<g id="clust8" class="cluster">
<title>cluster_RestAdminModule</title>
<polygon fill="none" stroke="#000000" stroke-dasharray="1,5" points="156,-70 156,-336 619,-336 619,-70 156,-70"/>
</g>
<g id="clust9" class="cluster">
<title>cluster_RestAdminModule_declarations</title>
<polygon fill="none" stroke="#000000" points="166,-143 166,-195 603,-195 603,-143 166,-143"/>
</g>
<g id="clust10" class="cluster">
<title>cluster_RestAdminModule_RestAdminComponent_providers</title>
<polygon fill="none" stroke="#000000" points="411,-78 411,-130 611,-130 611,-78 411,-78"/>
</g>
<g id="clust14" class="cluster">
<title>cluster_RestAdminModule_exports</title>
<polygon fill="none" stroke="#000000" points="164,-276 164,-328 611,-328 611,-276 164,-276"/>
</g>
<!-- AppComponent -->
<g id="node1" class="node">
<title>AppComponent</title>
<polygon fill="#ffffb3" stroke="#000000" points="130.9399,-122 25.0601,-122 25.0601,-86 130.9399,-86 130.9399,-122"/>
<text text-anchor="middle" x="78" y="-99.8" font-family="Times,serif" font-size="14.00" fill="#000000">AppComponent</text>
</g>
<!-- AppModule -->
<g id="node2" class="node">
<title>AppModule</title>
<polygon fill="#8dd3c7" stroke="#000000" points="119.6571,-187 116.6571,-191 95.6571,-191 92.6571,-187 36.3429,-187 36.3429,-151 119.6571,-151 119.6571,-187"/>
<text text-anchor="middle" x="78" y="-164.8" font-family="Times,serif" font-size="14.00" fill="#000000">AppModule</text>
</g>
<!-- AppComponent&#45;&gt;AppModule -->
<g id="edge1" class="edge">
<title>AppComponent&#45;&gt;AppModule</title>
<path fill="none" stroke="#000000" d="M78,-122.1061C78,-122.1061 78,-140.991 78,-140.991"/>
<polygon fill="#000000" stroke="#000000" points="74.5001,-140.9909 78,-150.991 81.5001,-140.991 74.5001,-140.9909"/>
</g>
<!-- AppComponent  -->
<g id="node3" class="node">
<title>AppComponent </title>
<polygon fill="#80b1d3" stroke="#000000" points="132.439,-252 23.561,-252 23.561,-216 132.439,-216 132.439,-252"/>
<text text-anchor="middle" x="78" y="-229.8" font-family="Times,serif" font-size="14.00" fill="#000000">AppComponent </text>
</g>
<!-- AppModule&#45;&gt;AppComponent  -->
<g id="edge2" class="edge">
<title>AppModule&#45;&gt;AppComponent </title>
<path fill="none" stroke="#000000" stroke-dasharray="1,5" d="M78,-187.1061C78,-187.1061 78,-205.991 78,-205.991"/>
<polygon fill="#000000" stroke="#000000" points="74.5001,-205.9909 78,-215.991 81.5001,-205.991 74.5001,-205.9909"/>
</g>
<!-- RestAdminComponent -->
<g id="node4" class="node">
<title>RestAdminComponent</title>
<polygon fill="#ffffb3" stroke="#000000" points="594.6066,-187 449.3934,-187 449.3934,-151 594.6066,-151 594.6066,-187"/>
<text text-anchor="middle" x="522" y="-164.8" font-family="Times,serif" font-size="14.00" fill="#000000">RestAdminComponent</text>
</g>
<!-- RestAdminModule -->
<g id="node7" class="node">
<title>RestAdminModule</title>
<polygon fill="#8dd3c7" stroke="#000000" points="407.8244,-252 404.8244,-256 383.8244,-256 380.8244,-252 284.1756,-252 284.1756,-216 407.8244,-216 407.8244,-252"/>
<text text-anchor="middle" x="346" y="-229.8" font-family="Times,serif" font-size="14.00" fill="#000000">RestAdminModule</text>
</g>
<!-- RestAdminComponent&#45;&gt;RestAdminModule -->
<g id="edge3" class="edge">
<title>RestAdminComponent&#45;&gt;RestAdminModule</title>
<path fill="none" stroke="#000000" d="M547.9344,-187.0225C547.9344,-204.3734 547.9344,-228 547.9344,-228 547.9344,-228 417.6842,-228 417.6842,-228"/>
<polygon fill="#000000" stroke="#000000" points="417.6843,-224.5001 407.6842,-228 417.6842,-231.5001 417.6843,-224.5001"/>
</g>
<!-- RestAdminFieldComponent -->
<g id="node5" class="node">
<title>RestAdminFieldComponent</title>
<polygon fill="#ffffb3" stroke="#000000" points="431.885,-187 258.115,-187 258.115,-151 431.885,-151 431.885,-187"/>
<text text-anchor="middle" x="345" y="-164.8" font-family="Times,serif" font-size="14.00" fill="#000000">RestAdminFieldComponent</text>
</g>
<!-- RestAdminFieldComponent&#45;&gt;RestAdminModule -->
<g id="edge5" class="edge">
<title>RestAdminFieldComponent&#45;&gt;RestAdminModule</title>
<path fill="none" stroke="#000000" d="M346,-187.1061C346,-187.1061 346,-205.991 346,-205.991"/>
<polygon fill="#000000" stroke="#000000" points="342.5001,-205.9909 346,-215.991 349.5001,-205.991 342.5001,-205.9909"/>
</g>
<!-- SafePipe -->
<g id="node6" class="node">
<title>SafePipe</title>
<polygon fill="#ffffb3" stroke="#000000" points="239.7606,-187 174.2394,-187 174.2394,-151 239.7606,-151 239.7606,-187"/>
<text text-anchor="middle" x="207" y="-164.8" font-family="Times,serif" font-size="14.00" fill="#000000">SafePipe</text>
</g>
<!-- SafePipe&#45;&gt;RestAdminModule -->
<g id="edge6" class="edge">
<title>SafePipe&#45;&gt;RestAdminModule</title>
<path fill="none" stroke="#000000" d="M217.96,-187.0225C217.96,-204.3734 217.96,-228 217.96,-228 217.96,-228 274.2303,-228 274.2303,-228"/>
<polygon fill="#000000" stroke="#000000" points="274.2303,-231.5001 284.2303,-228 274.2303,-224.5001 274.2303,-231.5001"/>
</g>
<!-- RestAdminComponent  -->
<g id="node9" class="node">
<title>RestAdminComponent </title>
<polygon fill="#fb8072" stroke="#000000" points="603.1071,-320 454.8929,-320 454.8929,-284 603.1071,-284 603.1071,-320"/>
<text text-anchor="middle" x="529" y="-297.8" font-family="Times,serif" font-size="14.00" fill="#000000">RestAdminComponent </text>
</g>
<!-- RestAdminModule&#45;&gt;RestAdminComponent  -->
<g id="edge7" class="edge">
<title>RestAdminModule&#45;&gt;RestAdminComponent </title>
<path fill="none" stroke="#000000" stroke-dasharray="5,2" d="M407.8311,-240C451.1436,-240 501.3156,-240 501.3156,-240 501.3156,-240 501.3156,-273.7333 501.3156,-273.7333"/>
<polygon fill="#000000" stroke="#000000" points="497.8157,-273.7333 501.3156,-283.7333 504.8157,-273.7333 497.8157,-273.7333"/>
</g>
<!-- RestAdminFieldComponent  -->
<g id="node10" class="node">
<title>RestAdminFieldComponent </title>
<polygon fill="#fb8072" stroke="#000000" points="436.8854,-320 259.1146,-320 259.1146,-284 436.8854,-284 436.8854,-320"/>
<text text-anchor="middle" x="348" y="-297.8" font-family="Times,serif" font-size="14.00" fill="#000000">RestAdminFieldComponent </text>
</g>
<!-- RestAdminModule&#45;&gt;RestAdminFieldComponent  -->
<g id="edge8" class="edge">
<title>RestAdminModule&#45;&gt;RestAdminFieldComponent </title>
<path fill="none" stroke="#000000" stroke-dasharray="5,2" d="M346,-252.2228C346,-252.2228 346,-273.7269 346,-273.7269"/>
<polygon fill="#000000" stroke="#000000" points="342.5001,-273.7269 346,-283.7269 349.5001,-273.727 342.5001,-273.7269"/>
</g>
<!-- SafePipe  -->
<g id="node11" class="node">
<title>SafePipe </title>
<polygon fill="#fb8072" stroke="#000000" points="241.7607,-320 172.2393,-320 172.2393,-284 241.7607,-284 241.7607,-320"/>
<text text-anchor="middle" x="207" y="-297.8" font-family="Times,serif" font-size="14.00" fill="#000000">SafePipe </text>
</g>
<!-- RestAdminModule&#45;&gt;SafePipe  -->
<g id="edge9" class="edge">
<title>RestAdminModule&#45;&gt;SafePipe </title>
<path fill="none" stroke="#000000" stroke-dasharray="5,2" d="M284.1397,-240C242.8315,-240 196.04,-240 196.04,-240 196.04,-240 196.04,-273.7333 196.04,-273.7333"/>
<polygon fill="#000000" stroke="#000000" points="192.5401,-273.7333 196.04,-283.7333 199.5401,-273.7333 192.5401,-273.7333"/>
</g>
<!-- ConfirmationService -->
<g id="node8" class="node">
<title>ConfirmationService</title>
<ellipse fill="#fdb462" stroke="#000000" cx="511" cy="-104" rx="92.0509" ry="18"/>
<text text-anchor="middle" x="511" y="-99.8" font-family="Times,serif" font-size="14.00" fill="#000000">ConfirmationService</text>
</g>
<!-- ConfirmationService&#45;&gt;RestAdminComponent -->
<g id="edge4" class="edge">
<title>ConfirmationService&#45;&gt;RestAdminComponent</title>
<path fill="none" stroke="#000000" d="M522,-122.1061C522,-122.1061 522,-140.991 522,-140.991"/>
<polygon fill="#000000" stroke="#000000" points="518.5001,-140.9909 522,-150.991 525.5001,-140.991 518.5001,-140.9909"/>
</g>
</g>
</svg>
